<?xml version="1.0" encoding="UTF-8"?>
<!-- Generator: Adobe Illustrator 25.2.3, SVG Export Plug-In . SVG Version: 6.00 Build 0)  -->
<svg xmlns="http://www.w3.org/2000/svg" xmlns:xlink="http://www.w3.org/1999/xlink" version="1.0" id="Layer_1" x="0px" y="0px" viewBox="0 0 128 128" style="enable-background:new 0 0 128 128;" xml:space="preserve">
<style type="text/css">
	.st0{fill:#01A86D;}
	.st1{fill:#044CA0;}
</style>
<g>
	<g>
		<path class="st0" d="M63.4,5.7c0.6-0.8,1.4,0,1.8,0.5c8.1,8.8,9.9,22.6,4.4,33.2c-1.5,2.8-3.2,5.4-5.5,7.5c-1.2-0.9-2.1-2.1-3-3.3    c-4.3-5.8-6.4-13.3-5.6-20.4C56.1,16.7,59,10.5,63.4,5.7z"></path>
		<path class="st0" d="M35.6,32.5c4.2-0.4,8.4,1.2,11.9,3.6c5.4,3.8,8.8,10.3,8.5,16.9c-3.1-0.5-6.2-0.9-9-2.3    C40.1,47.4,35.4,40.1,35.6,32.5z"></path>
		<path class="st0" d="M78.2,38.2c3.5-3.5,8.4-5.7,13.4-5.9c0.3,0,0.8,0.1,1,0.2c0,5.7-2.7,11.3-6.9,15.2c-3.7,3.3-8.6,5.1-13.5,5.1    C72.1,47.3,74.3,41.9,78.2,38.2z"></path>
		<path class="st0" d="M67.3,57.2c4.3-0.5,8.6,0.3,12.9-0.1c4.7,0,9.4,0.3,14.1-0.1c2.3-0.1,4.7,0.2,7,0.3c5.9,1,11.3,5.2,13.4,10.9    c1.3,2.8,1.2,5.9,1.1,8.9c-1,8.2-8.5,15-16.7,15.1c-7.9,0.1-15.8,0-23.7,0.1c0,7.8,0,15.6,0,23.3c0,2,0.2,4.2-1.1,5.8    c-1.6,1.7-4.8,1.6-6.2-0.4c-0.7-0.8-0.7-2-0.7-3.1C67.4,97.8,67.3,77.5,67.3,57.2z"></path>
	</g>
	<g>
		<path class="st1" d="M24.1,58c2.2-0.9,4.7-0.8,7-0.9c9.9,0,19.7,0,29.6,0c0.1,17.2,0,34.3,0,51.5c0.1,1.6-0.5,3.3-2.1,4    c-2.3,1.4-5.6-0.3-5.8-2.9c-0.2-5.8,0.2-11.6-0.2-17.4c-8,0-15.9,0-23.9,0C20,91.9,12.2,84,12.2,75.2C11.7,67.6,17,60.3,24.1,58z"></path>
	</g>
</g>
</svg>
