<svg xmlns="http://www.w3.org/2000/svg" viewBox="0 0 96 96" role="img" aria-label="China flag">
  <defs>
    <clipPath id="circle">
      <circle cx="48" cy="48" r="47"/>
    </clipPath>
  </defs>
  <g clip-path="url(#circle)">
    <rect width="96" height="96" fill="#de2910"/>
    <path d="M25 18l4.6 14.1h14.8l-12 8.7 4.6 14.1-12-8.7-12 8.7 4.6-14.1-12-8.7h14.8z" fill="#ffde00"/>
    <path d="M54 16l2 6h6.3l-5.1 3.7 2 6-5.2-3.7-5.1 3.7 2-6-5.1-3.7H52z" fill="#ffde00"/>
    <path d="M67 29l2 6h6.3l-5.1 3.7 2 6-5.2-3.7-5.1 3.7 2-6-5.1-3.7H65z" fill="#ffde00"/>
    <path d="M66 48l2 6h6.3l-5.1 3.7 2 6-5.2-3.7-5.1 3.7 2-6-5.1-3.7H64z" fill="#ffde00"/>
    <path d="M53 61l2 6h6.3l-5.1 3.7 2 6-5.2-3.7-5.1 3.7 2-6-5.1-3.7H51z" fill="#ffde00"/>
  </g>
  <circle cx="48" cy="48" r="47" fill="none" stroke="rgba(16,24,32,.14)" stroke-width="2"/>
</svg>
