<svg xmlns="http://www.w3.org/2000/svg" viewBox="0 0 96 96" role="img" aria-label="United States flag">
  <defs>
    <clipPath id="circle">
      <circle cx="48" cy="48" r="47"/>
    </clipPath>
  </defs>
  <circle cx="48" cy="48" r="47" fill="#fff"/>
  <g clip-path="url(#circle)">
    <rect width="96" height="96" fill="#fff"/>
    <g fill="#b22234">
      <rect y="0" width="96" height="7.39"/>
      <rect y="14.77" width="96" height="7.39"/>
      <rect y="29.54" width="96" height="7.39"/>
      <rect y="44.31" width="96" height="7.39"/>
      <rect y="59.08" width="96" height="7.39"/>
      <rect y="73.85" width="96" height="7.39"/>
      <rect y="88.62" width="96" height="7.39"/>
    </g>
    <rect width="42" height="51.7" fill="#3c3b6e"/>
    <g fill="#fff">
      <circle cx="7" cy="8" r="1.6"/>
      <circle cx="17" cy="8" r="1.6"/>
      <circle cx="27" cy="8" r="1.6"/>
      <circle cx="37" cy="8" r="1.6"/>
      <circle cx="12" cy="16" r="1.6"/>
      <circle cx="22" cy="16" r="1.6"/>
      <circle cx="32" cy="16" r="1.6"/>
      <circle cx="7" cy="24" r="1.6"/>
      <circle cx="17" cy="24" r="1.6"/>
      <circle cx="27" cy="24" r="1.6"/>
      <circle cx="37" cy="24" r="1.6"/>
      <circle cx="12" cy="32" r="1.6"/>
      <circle cx="22" cy="32" r="1.6"/>
      <circle cx="32" cy="32" r="1.6"/>
      <circle cx="7" cy="40" r="1.6"/>
      <circle cx="17" cy="40" r="1.6"/>
      <circle cx="27" cy="40" r="1.6"/>
      <circle cx="37" cy="40" r="1.6"/>
    </g>
  </g>
  <circle cx="48" cy="48" r="47" fill="none" stroke="rgba(16,24,32,.14)" stroke-width="2"/>
</svg>
