<svg width="332" height="84" viewBox="0 0 332 84" fill="none" xmlns="http://www.w3.org/2000/svg">
  <rect width="84" height="84" rx="24" fill="url(#paint0_linear)"/>
  <circle cx="42" cy="42" r="22" stroke="#0E1620" stroke-width="5"/>
  <circle cx="42" cy="42" r="7" fill="#0E1620"/>
  <path d="M107 29.712H115.88C116.904 35.984 121.448 39.048 128.04 39.048C133.864 39.048 138.216 36.688 138.216 32.784C138.216 28.496 133.864 27.664 126.184 26.384C117.432 24.912 109.864 22.68 109.864 13.992C109.864 5.56 117.56 0.631998 127.672 0.631998C139 0.631998 146.808 5.944 148.024 15.024H139.144C138.12 9.968 134.152 7.416 127.496 7.416C121.544 7.416 118.096 9.968 118.096 13.296C118.096 17.328 122 18.16 129.36 19.376C138.688 20.912 146.448 23.08 146.448 31.96C146.448 40.52 138.56 45.832 127.848 45.832C116.136 45.832 108.28 39.944 107 29.712Z" fill="#F7F1E6"/>
  <path d="M157.405 45V1.4H187.933V8.184H165.901V19.376H184.293V25.904H165.901V38.216H188.381V45H157.405Z" fill="#F7F1E6"/>
  <path d="M198.908 45V1.4H207.404V37.768H228.412V45H198.908Z" fill="#F7F1E6"/>
  <path d="M236.851 45V1.4H267.379V8.184H245.347V19.376H263.739V25.904H245.347V38.216H267.827V45H236.851Z" fill="#F7F1E6"/>
  <path d="M278.447 45V1.4H296.583C309.215 1.4 317.191 10.024 317.191 23.208C317.191 36.392 309.215 45 296.583 45H278.447ZM286.943 37.768H296.071C304.183 37.768 308.439 32.776 308.439 23.208C308.439 13.64 304.183 8.632 296.071 8.632H286.943V37.768Z" fill="#F7F1E6"/>
  <defs>
    <linearGradient id="paint0_linear" x1="6" y1="6" x2="74" y2="78" gradientUnits="userSpaceOnUse">
      <stop stop-color="#F0DFC0"/>
      <stop offset="1" stop-color="#B58B4C"/>
    </linearGradient>
  </defs>
</svg>
